<svg width="80" height="80" viewBox="0 0 80 80" fill="none" xmlns="http://www.w3.org/2000/svg">
<rect width="80" height="80" rx="8" fill="#F55A07"/>
<g clip-path="url(#clip0_16_512)">
<path d="M55.0181 24.1176L48.0499 31.1765C47.7482 31.4781 47.3861 31.81 46.9638 32.172C46.5414 32.534 46.0286 32.9564 45.4253 33.4389C49.8295 34.0422 53.3891 35.8371 56.1041 38.8236C58.8191 41.8102 60.1765 45.6864 60.1765 50.4524C60.1765 53.469 59.6033 56.1839 58.4571 58.5972C57.3108 61.0104 55.7422 63.0617 53.7512 64.7511C51.7602 66.4404 49.4374 67.7375 46.7828 68.6425C44.1282 69.5474 41.3228 69.9999 38.3665 70C30.2218 70 23.7663 67.7979 19 63.3937C19.2413 61.7647 19.905 60.1207 20.9909 58.4615C22.0769 56.8024 23.374 55.3997 24.8824 54.2533C28.5626 57.2096 32.454 58.6878 36.5565 58.6878C39.4525 58.6878 41.6998 57.8733 43.2986 56.2444C44.8973 54.6154 45.6967 52.4736 45.6968 49.8191C45.6968 48.4314 45.4555 47.2549 44.9728 46.2896C44.4902 45.3244 43.8718 44.525 43.1176 43.8914C42.3635 43.2578 41.4887 42.7903 40.4932 42.4887C39.4976 42.1871 38.4871 42.0363 37.4615 42.0362C35.6516 42.0362 34.1131 42.3982 32.8462 43.1221C31.6999 42.5791 30.629 41.5686 29.6335 40.0905C28.6381 38.6124 27.9593 37.089 27.5973 35.5204L35.9232 26.9231C36.9487 25.8371 37.9895 24.8265 39.0453 23.8914C40.1011 22.9563 41.1117 22.0965 42.0769 21.3122L41.7149 20.7693C38.8793 21.4932 35.9533 21.8552 32.9367 21.8552H21.9865C21.3831 20.1659 21.0814 18.2956 21.0814 16.2444C21.0814 15.1584 21.1719 14.0875 21.3529 13.0316C21.534 11.9758 21.8356 10.9653 22.2579 10H54.9276C56.7979 13.3183 57.7331 16.0634 57.7331 18.2353C57.7331 20.3469 56.8281 22.3077 55.0181 24.1176Z" fill="white"/>
</g>
<defs>
<clipPath id="clip0_16_512">
<rect width="41.1765" height="60" fill="white" transform="translate(19 10)"/>
</clipPath>
</defs>
</svg>
