<svg width="80" height="80" viewBox="0 0 80 80" fill="none" xmlns="http://www.w3.org/2000/svg">
<rect width="80" height="80" rx="8" fill="#FFB146"/>
<g clip-path="url(#clip0_16_507)">
<path d="M35.6147 58.3486L35.5229 51.5596V39.5412C35.5229 38.6238 35.6146 36.8807 35.7982 34.3119C35.9817 31.7431 36.104 29.9388 36.1651 28.899C32.9846 32.4465 28.9174 35.2599 23.9633 37.3394C22.5566 36.7278 21.2722 35.6421 20.1101 34.0825C18.948 32.5229 18.2446 30.8562 18 29.0825C26.5627 23.7615 32.5566 17.5842 35.9816 10.5506C38.0612 10.1835 40.3395 10 42.8165 10C45.2936 10 47.5107 10.1835 49.4678 10.5506V51.5595L49.3762 58.3485L55.6146 58.2567H60.5688C61.0581 60.0916 61.3027 62.0489 61.3027 64.1284C61.3027 66.2079 61.0581 68.1651 60.5688 70H22.312C21.8226 68.0427 21.5779 66.0549 21.5779 64.0366C21.5779 62.0183 21.8226 60.0917 22.312 58.2568H29.7431L35.6147 58.3486Z" fill="white"/>
</g>
<defs>
<clipPath id="clip0_16_507">
<rect width="43.3027" height="60" fill="white" transform="translate(18 10)"/>
</clipPath>
</defs>
</svg>
