<svg width="80" height="80" viewBox="0 0 80 80" fill="none" xmlns="http://www.w3.org/2000/svg">
<rect width="80" height="80" rx="8" fill="#ED8900"/>
<g clip-path="url(#clip0_16_509)">
<path d="M60.756 57.9819C60.756 62.0783 60.1385 65.1054 58.9035 67.0632C57.6686 69.0211 55.3041 70 51.8101 70H24.8826C23.738 68.9157 22.6386 67.5452 21.5843 65.8885C20.5301 64.2319 20.003 62.7409 20.0029 61.4156C19.9427 59.0662 20.8011 56.5813 22.5782 53.9608C24.3553 51.3403 26.9608 48.4638 30.3945 45.3313L40.1536 36.4759C43.3464 33.5843 44.9428 30.7229 44.9428 27.8915C44.9428 26.024 44.3855 24.4879 43.2711 23.2832C42.1566 22.0784 40.6054 21.476 38.6174 21.4759C36.6897 21.4759 35.0331 22.244 33.6475 23.7801C32.262 25.3161 31.268 27.1987 30.6656 29.4277C29.762 29.4277 28.8132 29.3373 27.8192 29.1566C26.8252 28.9759 25.8614 28.7048 24.9276 28.3433C23.9939 27.9819 23.1505 27.5451 22.3975 27.0331C21.6445 26.521 21.0571 25.9337 20.6354 25.271C21.2378 23.0422 22.1415 20.994 23.3463 19.1265C24.5511 17.2591 25.9969 15.6476 27.6837 14.2922C29.3704 12.9368 31.3132 11.8825 33.512 11.1295C35.7108 10.3765 38.1355 10 40.7861 10C43.3765 10 45.8012 10.4367 48.0601 11.3102C50.3191 12.1837 52.2769 13.4187 53.9336 15.0151C55.5903 16.6115 56.8855 18.5392 57.8192 20.7982C58.7529 23.0573 59.2197 25.5422 59.2198 28.2531C59.1596 31.8072 58.2258 34.9699 56.4186 37.741C54.6114 40.512 51.9607 43.3434 48.4668 46.235L41.9608 51.6567C37.8042 55.2108 35.3644 57.6506 34.6415 58.9759C37.2319 58.6747 39.6566 58.4337 41.9156 58.253C44.1747 58.0722 46.3283 57.9819 48.3764 57.9819H60.756Z" fill="white"/>
</g>
<defs>
<clipPath id="clip0_16_509">
<rect width="40.756" height="60" fill="white" transform="translate(20 10)"/>
</clipPath>
</defs>
</svg>
