<svg width="500" height="500" viewBox="0 0 500 500" fill="none" xmlns="http://www.w3.org/2000/svg">
<rect width="500" height="500" rx="120" fill="black"/>
<g clip-path="url(#clip0_6_46)">
<path d="M49.0936 355.377L40 304.698C42.4664 303.698 44.65 303.197 46.5508 303.197C48.7084 303.197 50.2752 303.711 51.2512 304.739C52.2272 305.767 52.9208 307.698 53.332 310.532L56.5684 332.038C57.5444 338.484 58.1612 342.985 58.4188 345.541C58.6764 348.097 58.8432 349.431 58.9192 349.541C58.9952 349.652 59.162 349.708 59.4196 349.709L65.8156 305.031C67.7172 304.642 70.3632 304.447 73.7536 304.447C77.144 304.447 79.764 304.642 81.6136 305.031L87.472 348.625C87.5232 349.125 87.6128 349.431 87.7408 349.541C87.8688 349.652 88.0616 349.708 88.3192 349.709C88.7816 344.485 89.5524 338.567 90.6316 331.953L94.9468 303.948C96.4364 303.614 98.1576 303.447 100.11 303.447C102.474 303.447 104.554 303.752 106.353 304.364L106.893 305.114L96.7192 360.795C93.38 361.184 90.246 361.379 87.3172 361.379C84.3884 361.379 82.3076 360.989 81.0748 360.211C79.842 359.432 79.046 357.821 78.6868 355.377L76.066 337.289C75.1412 330.732 74.3964 324.285 73.8316 317.95H73.2916C72.7268 323.34 71.8788 329.787 70.7476 337.289L67.2796 360.795C63.7868 361.184 60.6148 361.379 57.7636 361.379C54.9124 361.379 52.87 360.989 51.6364 360.211C50.4028 359.432 49.5552 357.821 49.0936 355.377ZM137.794 322.952C141.493 326.953 143.343 332.677 143.343 340.124C143.343 343.457 142.945 346.485 142.149 349.209C141.353 351.933 140.197 354.253 138.681 356.169C137.165 358.084 135.302 359.557 133.094 360.586C130.885 361.614 128.342 362.128 125.464 362.128C122.586 362.127 120.056 361.599 117.873 360.544C115.69 359.489 113.84 358.003 112.325 356.084C110.81 354.166 109.667 351.846 108.896 349.125C108.124 346.404 107.739 343.403 107.74 340.122C107.74 336.788 108.125 333.774 108.896 331.078C109.666 328.383 110.796 326.063 112.287 324.119C113.777 322.175 115.626 320.674 117.834 319.618C120.042 318.561 122.586 318.033 125.464 318.034C130.55 318.034 134.66 319.673 137.794 322.952ZM125.542 327.787C124.412 327.787 123.5 328.078 122.806 328.662C122.112 329.245 121.56 330.037 121.149 331.037C120.738 332.037 120.455 333.19 120.3 334.496C120.146 335.802 120.069 337.205 120.07 338.705C120.07 341.04 120.134 343.054 120.262 344.748C120.39 346.442 120.647 347.86 121.034 349C121.42 350.141 121.959 350.988 122.651 351.542C123.343 352.095 124.255 352.374 125.387 352.376C127.648 352.376 129.138 351.306 129.857 349.166C130.576 347.027 130.936 343.984 130.936 340.039C130.936 336.038 130.576 332.996 129.856 330.912C129.136 328.829 127.698 327.787 125.541 327.787H125.542ZM147.966 325.286C148.224 324.175 148.712 322.938 149.43 321.576C150.149 320.214 150.868 319.228 151.589 318.617C156.316 319.006 159.604 321.535 161.453 326.202C163.405 321.201 166.616 318.7 171.087 318.7C172.423 318.7 174.118 318.922 176.172 319.367C176.172 321.09 175.903 323.132 175.364 325.493C174.824 327.855 174.092 329.87 173.168 331.538C172.294 331.204 170.984 330.926 169.236 330.703C166.668 330.703 164.562 332.121 162.917 334.955V360.878C161.221 361.211 159.23 361.377 156.945 361.377C154.659 361.377 152.643 361.211 150.896 360.878V333.955C150.896 329.786 149.918 326.897 147.966 325.286ZM193.204 318.451C195.67 318.451 198.058 319.062 200.37 320.285V300.113L200.834 299.529H205.534C208 299.529 209.708 300.113 210.658 301.28C211.608 302.448 212.083 304.476 212.085 307.365V348.874C212.085 351.82 212.804 353.82 214.242 354.876C213.986 356.043 213.498 357.294 212.778 358.627C212.059 359.96 211.314 360.933 210.543 361.545C206.792 361.433 204.044 359.877 202.298 356.876C199.214 360.377 195.515 362.128 191.2 362.128C186.885 362.128 183.571 360.183 181.259 356.293C178.947 352.404 177.791 347.069 177.791 340.29C177.791 336.955 178.189 333.94 178.985 331.246C179.781 328.551 180.873 326.259 182.261 324.369C183.649 322.48 185.28 321.021 187.154 319.993C189.027 318.965 191.044 318.451 193.204 318.451ZM194.745 351.626C196.851 351.626 198.726 350.542 200.37 348.375V330.12C198.264 328.787 196.594 328.12 195.362 328.12C191.868 328.12 190.121 332.288 190.121 340.623C190.121 347.958 191.662 351.626 194.745 351.626ZM234.972 355.961C235.127 354.127 235.654 352.292 236.553 350.458C237.452 348.623 238.518 347.123 239.751 345.958C245.248 349.57 250.462 351.375 255.394 351.375C257.552 351.375 259.132 350.848 260.134 349.792C261.136 348.736 261.636 347.43 261.636 345.874C261.636 343.262 260.018 341.206 256.781 339.706L247.688 335.539C244.144 333.816 241.421 331.745 239.519 329.329C237.618 326.912 236.667 323.841 236.668 320.117C236.668 317.561 237.143 315.228 238.094 313.116C239.044 311.005 240.38 309.171 242.102 307.614C243.823 306.058 245.865 304.849 248.228 303.989C250.59 303.129 253.21 302.698 256.088 302.696C261.842 302.696 267.648 304.28 273.504 307.447C273.248 311.727 271.861 315.061 269.343 317.45C264.103 314.728 259.479 313.367 255.471 313.367C253.416 313.367 251.875 313.867 250.847 314.867C249.819 315.867 249.306 317.007 249.306 318.285C249.306 320.451 250.822 322.201 253.853 323.535L263.1 327.787C267.005 329.565 269.921 331.843 271.848 334.622C273.776 337.4 274.739 340.623 274.738 344.291C274.738 346.903 274.301 349.292 273.428 351.459C272.554 353.625 271.257 355.501 269.536 357.085C267.815 358.669 265.67 359.906 263.1 360.795C260.531 361.683 257.526 362.128 254.085 362.128C247.406 362.128 241.035 360.073 234.972 355.961ZM311.343 344.29H291.23C291.332 346.791 291.923 348.736 293.002 350.126C294.081 351.515 295.854 352.21 298.319 352.209C299.552 352.209 300.978 352.014 302.596 351.625C304.214 351.235 306.077 350.597 308.183 349.709C309.879 351.598 310.932 354.154 311.343 357.377C307.233 360.544 302.198 362.128 296.238 362.128C293.002 362.128 290.292 361.572 288.108 360.461C285.925 359.35 284.153 357.794 282.791 355.794C281.43 353.793 280.466 351.431 279.9 348.707C279.335 345.983 279.052 343.011 279.053 339.79C279.053 336.678 279.4 333.802 280.094 331.163C280.787 328.524 281.84 326.231 283.253 324.285C284.666 322.339 286.464 320.811 288.647 319.701C290.83 318.59 293.386 318.035 296.315 318.034C298.782 318.034 301.004 318.478 302.981 319.367C304.959 320.256 306.642 321.478 308.03 323.035C309.418 324.592 310.484 326.453 311.228 328.62C311.972 330.787 312.344 333.149 312.345 335.705C312.345 339.095 312.011 341.956 311.343 344.29ZM291.153 335.288H301.325V334.371C301.325 332.315 300.901 330.621 300.053 329.287C299.205 327.954 297.934 327.287 296.238 327.286C294.594 327.286 293.374 327.911 292.578 329.161C291.782 330.412 291.307 332.454 291.153 335.288ZM352.341 354.876C352.085 356.043 351.597 357.294 350.877 358.627C350.157 359.96 349.412 360.933 348.642 361.545C345.046 361.433 342.271 359.96 340.319 357.127C336.98 360.461 333.358 362.128 329.453 362.128C327.449 362.128 325.702 361.781 324.213 361.087C322.723 360.393 321.464 359.462 320.436 358.293C319.408 357.125 318.638 355.778 318.125 354.252C317.612 352.725 317.355 351.128 317.354 349.458C317.354 347.068 317.752 344.971 318.549 343.165C319.346 341.359 320.438 339.858 321.825 338.663C323.212 337.469 324.83 336.566 326.679 335.955C328.528 335.344 330.506 335.038 332.613 335.038C333.794 335.038 334.835 335.052 335.734 335.08C336.633 335.108 337.417 335.149 338.085 335.204V333.621C338.085 330.12 336.415 328.37 333.075 328.37C330.917 328.37 327.141 329.259 321.747 331.037C320.205 329.093 319.229 326.064 318.819 321.951C320.051 321.451 321.425 320.979 322.941 320.534C324.457 320.089 326.011 319.7 327.604 319.367C329.197 319.034 330.764 318.77 332.304 318.575C333.845 318.381 335.232 318.284 336.466 318.285C338.264 318.285 339.998 318.562 341.668 319.118C343.338 319.673 344.802 320.52 346.06 321.659C347.318 322.798 348.32 324.271 349.066 326.077C349.812 327.884 350.184 330.037 350.183 332.537V349.458C350.183 352.014 350.902 353.82 352.341 354.876ZM329.068 348.625C329.068 351.237 330.455 352.542 333.23 352.542C334.668 352.542 336.286 351.737 338.085 350.126V343.457C337.057 343.401 336.196 343.36 335.502 343.332C334.809 343.304 334.282 343.291 333.923 343.291C330.686 343.291 329.068 345.069 329.068 348.625ZM356.888 325.286C357.144 324.175 357.632 322.938 358.352 321.576C359.071 320.214 359.79 319.228 360.51 318.617C365.237 319.006 368.525 321.535 370.374 326.202C372.326 321.201 375.537 318.7 380.007 318.7C381.343 318.7 383.038 318.922 385.094 319.367C385.094 321.09 384.824 323.132 384.285 325.493C383.746 327.855 383.014 329.87 382.089 331.538C381.215 331.204 379.905 330.926 378.158 330.703C375.59 330.703 373.483 332.121 371.838 334.955V360.878C370.142 361.211 368.152 361.377 365.866 361.377C363.58 361.377 361.564 361.211 359.817 360.878V333.955C359.817 329.786 358.841 326.897 356.889 325.286H356.888ZM407.828 337.706V336.622C407.828 333.51 407.52 331.246 406.904 329.828C406.288 328.411 405.132 327.702 403.436 327.702C401.637 327.702 400.378 328.661 399.659 330.579C398.94 332.496 398.58 335.677 398.579 340.122C398.579 342.345 398.721 344.207 399.004 345.707C399.287 347.208 399.698 348.417 400.236 349.334C400.775 350.251 401.456 350.917 402.279 351.333C403.102 351.748 404.078 351.957 405.207 351.958C406.389 351.958 407.7 351.68 409.138 351.125C410.576 350.569 412.118 349.68 413.762 348.458C414.224 348.735 414.699 349.138 415.187 349.666C415.675 350.194 416.125 350.791 416.536 351.459C416.947 352.126 417.307 352.834 417.615 353.585C417.923 354.335 418.154 355.043 418.308 355.709C416.612 357.654 414.403 359.211 411.681 360.378C408.958 361.545 406.184 362.128 403.358 362.128C397.861 362.128 393.648 360.183 390.719 356.293C387.79 352.404 386.326 346.875 386.327 339.706C386.327 336.039 386.802 332.844 387.753 330.12C388.703 327.397 389.962 325.147 391.528 323.369C393.094 321.59 394.893 320.257 396.923 319.367C398.954 318.478 401.073 318.033 403.281 318.034C405.542 318.034 407.61 318.367 409.485 319.033C411.36 319.7 412.978 320.645 414.34 321.868C415.702 323.092 416.755 324.551 417.5 326.245C418.244 327.939 418.616 329.814 418.616 331.87C418.616 334.205 417.986 335.844 416.728 336.789C415.47 337.734 413.916 338.206 412.066 338.205C410.524 338.205 409.112 338.039 407.828 337.706ZM458.073 333.37V350.46C458.073 354.183 458.715 356.933 460 358.711C458.048 360.601 455.685 361.546 452.91 361.546C450.238 361.546 448.414 360.879 447.438 359.546C446.462 358.213 445.974 356.184 445.974 353.46V335.705C445.974 333.816 445.743 332.426 445.281 331.538C444.818 330.649 443.919 330.204 442.583 330.204C441.813 330.204 440.94 330.426 439.964 330.871C438.988 331.315 437.986 332.038 436.958 333.038V360.879C435.262 361.211 433.31 361.377 431.102 361.377C428.894 361.377 426.941 361.211 425.244 360.878V300.113L425.784 299.529H430.407C432.873 299.529 434.582 300.113 435.532 301.28C436.482 302.448 436.958 304.476 436.958 307.365V323.118C440.4 320.062 443.842 318.534 447.285 318.534C450.727 318.534 453.386 319.881 455.26 322.577C457.134 325.272 458.072 328.87 458.073 333.37ZM201.246 391.184L208.913 391.133C212.364 391.133 214.09 392.893 214.09 396.414V410.306C209.89 411.749 205.478 412.471 200.855 412.471C198.511 412.471 196.436 412.048 194.628 411.204C192.821 410.359 191.308 409.144 190.088 407.559C188.868 405.974 187.948 404.028 187.328 401.722C186.708 399.416 186.398 396.801 186.4 393.876C186.4 390.672 186.831 387.882 187.694 385.505C188.556 383.128 189.712 381.147 191.162 379.563C192.611 377.978 194.28 376.79 196.167 375.997C198.054 375.205 200.024 374.808 202.077 374.808C206.309 374.808 210.281 376.076 213.993 378.611C213.96 379.175 213.838 379.747 213.626 380.329C213.414 380.91 213.153 381.473 212.844 382.018C212.536 382.564 212.178 383.057 211.77 383.498C211.363 383.939 210.948 384.318 210.525 384.634C207.822 382.732 205.088 381.781 202.32 381.781C197.013 381.781 194.36 385.795 194.36 393.824C194.36 401.818 197.078 405.815 202.516 405.815C203.265 405.815 203.989 405.779 204.688 405.708C205.387 405.637 206.079 405.532 206.764 405.392V401.852C206.764 401.042 206.772 400.338 206.788 399.74C206.804 399.143 206.829 398.632 206.862 398.209H204.42C203.02 398.209 202.052 397.918 201.514 397.337C200.976 396.755 200.708 395.848 200.709 394.616C200.709 393.561 200.888 392.417 201.246 391.184ZM228.399 404.125C227.52 404.125 226.868 404.108 226.445 404.073L224.345 411.731C223.564 411.943 222.473 412.049 221.073 412.049C219.51 412.049 218.241 411.855 217.264 411.467L217.02 411.045L227.764 375.601C229.034 375.39 230.515 375.285 232.208 375.285C234.128 375.285 235.659 375.408 236.799 375.655L247.347 411.152C246.208 411.821 244.922 412.155 243.489 412.155C241.796 412.155 240.608 411.838 239.925 411.205C239.242 410.572 238.655 409.357 238.166 407.561L237.238 404.074C236.814 404.109 236.179 404.126 235.334 404.126H228.398L228.399 404.125ZM228.252 397.47L230.206 397.417H233.77C233.933 397.417 234.218 397.426 234.626 397.443C235.033 397.46 235.334 397.469 235.528 397.469L234.699 394.196C233.917 391.237 233.022 387.61 232.012 383.314H231.719C231.459 384.828 230.678 388.191 229.376 393.403L228.252 397.47ZM250.424 411.574L253.012 375.655C254.444 375.373 256.137 375.233 258.09 375.233C260.044 375.233 261.753 375.373 263.218 375.655L266.099 388.595C267.239 394.441 267.842 397.628 267.906 398.157H268.248C268.379 397.276 268.981 394.089 270.056 388.596L272.985 375.656C274.418 375.374 276.111 375.233 278.064 375.233C280.018 375.233 281.727 375.373 283.192 375.655L285.78 411.574C284.771 411.855 283.526 411.996 282.045 411.996C280.564 411.996 279.351 411.908 278.406 411.732L277.625 397.047C277.397 391.202 277.267 387.135 277.234 384.847H276.941L272.106 406.344C270.934 406.555 269.592 406.661 268.078 406.661C266.564 406.661 265.221 406.555 264.048 406.344L259.263 384.845H258.921C258.921 387.979 258.79 392.047 258.53 397.047L257.798 411.732C256.854 411.908 255.641 411.996 254.159 411.996C252.678 411.996 251.432 411.855 250.424 411.574ZM299.796 401.009L299.747 404.811V404.865C301.245 404.795 302.45 404.76 303.362 404.76H314.691C314.691 406.063 314.642 407.066 314.544 407.771C314.154 410.482 312.494 411.837 309.563 411.837H296.573C295.173 411.837 294.074 411.397 293.277 410.517C292.479 409.637 292.08 408.44 292.08 406.925V375.971L292.422 375.601H313.47C313.666 376.622 313.763 377.732 313.763 378.929C313.763 380.127 313.535 381.377 313.079 382.68H299.747L299.795 386.483V390.181C300.642 390.146 301.75 390.128 303.117 390.128H310.589C310.882 391.114 311.028 392.241 311.028 393.508C311.028 394.775 310.882 395.937 310.589 396.994H299.796V401.009Z" fill="#F7F4E2"/>
</g>
<g clip-path="url(#clip1_6_46)">
<path d="M350 80H150V280H350V80Z" fill="#F55A07"/>
<path d="M190.385 89.6154H163.462C161.337 89.6154 159.615 91.3373 159.615 93.4615V120.385C159.615 122.509 161.337 124.231 163.462 124.231H190.385C192.509 124.231 194.231 122.509 194.231 120.385V93.4615C194.231 91.3373 192.509 89.6154 190.385 89.6154Z" fill="white"/>
<path d="M226.923 89.6154H200C197.876 89.6154 196.154 91.3373 196.154 93.4615V120.385C196.154 122.509 197.876 124.231 200 124.231H226.923C229.047 124.231 230.769 122.509 230.769 120.385V93.4615C230.769 91.3373 229.047 89.6154 226.923 89.6154Z" fill="white"/>
<path d="M263.462 89.6154H236.538C234.414 89.6154 232.692 91.3373 232.692 93.4615V120.385C232.692 122.509 234.414 124.231 236.538 124.231H263.462C265.586 124.231 267.308 122.509 267.308 120.385V93.4615C267.308 91.3373 265.586 89.6154 263.462 89.6154Z" fill="black"/>
<path d="M300 89.6154H273.077C270.953 89.6154 269.231 91.3373 269.231 93.4615V120.385C269.231 122.509 270.953 124.231 273.077 124.231H300C302.124 124.231 303.846 122.509 303.846 120.385V93.4615C303.846 91.3373 302.124 89.6154 300 89.6154Z" fill="white"/>
<path d="M336.538 89.6154H309.615C307.491 89.6154 305.769 91.3373 305.769 93.4615V120.385C305.769 122.509 307.491 124.231 309.615 124.231H336.538C338.663 124.231 340.385 122.509 340.385 120.385V93.4615C340.385 91.3373 338.663 89.6154 336.538 89.6154Z" fill="white"/>
<path d="M190.385 126.154H163.462C161.337 126.154 159.615 127.876 159.615 130V156.923C159.615 159.047 161.337 160.769 163.462 160.769H190.385C192.509 160.769 194.231 159.047 194.231 156.923V130C194.231 127.876 192.509 126.154 190.385 126.154Z" fill="black"/>
<path d="M226.923 126.154H200C197.876 126.154 196.154 127.876 196.154 130V156.923C196.154 159.047 197.876 160.769 200 160.769H226.923C229.047 160.769 230.769 159.047 230.769 156.923V130C230.769 127.876 229.047 126.154 226.923 126.154Z" fill="white"/>
<path d="M263.462 126.154H236.538C234.414 126.154 232.692 127.876 232.692 130V156.923C232.692 159.047 234.414 160.769 236.538 160.769H263.462C265.586 160.769 267.308 159.047 267.308 156.923V130C267.308 127.876 265.586 126.154 263.462 126.154Z" fill="white"/>
<path d="M300 126.154H273.077C270.953 126.154 269.231 127.876 269.231 130V156.923C269.231 159.047 270.953 160.769 273.077 160.769H300C302.124 160.769 303.846 159.047 303.846 156.923V130C303.846 127.876 302.124 126.154 300 126.154Z" fill="black"/>
<path d="M336.538 126.154H309.615C307.491 126.154 305.769 127.876 305.769 130V156.923C305.769 159.047 307.491 160.769 309.615 160.769H336.538C338.663 160.769 340.385 159.047 340.385 156.923V130C340.385 127.876 338.663 126.154 336.538 126.154Z" fill="white"/>
<path d="M190.385 162.692H163.462C161.337 162.692 159.615 164.414 159.615 166.538V193.462C159.615 195.586 161.337 197.308 163.462 197.308H190.385C192.509 197.308 194.231 195.586 194.231 193.462V166.538C194.231 164.414 192.509 162.692 190.385 162.692Z" fill="black"/>
<path d="M226.923 162.692H200C197.876 162.692 196.154 164.414 196.154 166.538V193.462C196.154 195.586 197.876 197.308 200 197.308H226.923C229.047 197.308 230.769 195.586 230.769 193.462V166.538C230.769 164.414 229.047 162.692 226.923 162.692Z" fill="white"/>
<path d="M263.462 162.692H236.538C234.414 162.692 232.692 164.414 232.692 166.538V193.462C232.692 195.586 234.414 197.308 236.538 197.308H263.462C265.586 197.308 267.308 195.586 267.308 193.462V166.538C267.308 164.414 265.586 162.692 263.462 162.692Z" fill="white"/>
<path d="M300 162.692H273.077C270.953 162.692 269.231 164.414 269.231 166.538V193.462C269.231 195.586 270.953 197.308 273.077 197.308H300C302.124 197.308 303.846 195.586 303.846 193.462V166.538C303.846 164.414 302.124 162.692 300 162.692Z" fill="white"/>
<path d="M336.538 162.692H309.615C307.491 162.692 305.769 164.414 305.769 166.538V193.462C305.769 195.586 307.491 197.308 309.615 197.308H336.538C338.663 197.308 340.385 195.586 340.385 193.462V166.538C340.385 164.414 338.663 162.692 336.538 162.692Z" fill="black"/>
<path d="M190.385 199.231H163.462C161.337 199.231 159.615 200.953 159.615 203.077V230C159.615 232.124 161.337 233.846 163.462 233.846H190.385C192.509 233.846 194.231 232.124 194.231 230V203.077C194.231 200.953 192.509 199.231 190.385 199.231Z" fill="black"/>
<path d="M226.923 199.231H200C197.876 199.231 196.154 200.953 196.154 203.077V230C196.154 232.124 197.876 233.846 200 233.846H226.923C229.047 233.846 230.769 232.124 230.769 230V203.077C230.769 200.953 229.047 199.231 226.923 199.231Z" fill="white"/>
<path d="M263.462 199.231H236.538C234.414 199.231 232.692 200.953 232.692 203.077V230C232.692 232.124 234.414 233.846 236.538 233.846H263.462C265.586 233.846 267.308 232.124 267.308 230V203.077C267.308 200.953 265.586 199.231 263.462 199.231Z" fill="white"/>
<path d="M300 199.231H273.077C270.953 199.231 269.231 200.953 269.231 203.077V230C269.231 232.124 270.953 233.846 273.077 233.846H300C302.124 233.846 303.846 232.124 303.846 230V203.077C303.846 200.953 302.124 199.231 300 199.231Z" fill="white"/>
<path d="M336.538 199.231H309.615C307.491 199.231 305.769 200.953 305.769 203.077V230C305.769 232.124 307.491 233.846 309.615 233.846H336.538C338.663 233.846 340.385 232.124 340.385 230V203.077C340.385 200.953 338.663 199.231 336.538 199.231Z" fill="white"/>
<path d="M190.385 235.769H163.462C161.337 235.769 159.615 237.491 159.615 239.615V266.538C159.615 268.663 161.337 270.385 163.462 270.385H190.385C192.509 270.385 194.231 268.663 194.231 266.538V239.615C194.231 237.491 192.509 235.769 190.385 235.769Z" fill="white"/>
<path d="M226.923 235.769H200C197.876 235.769 196.154 237.491 196.154 239.615V266.538C196.154 268.663 197.876 270.385 200 270.385H226.923C229.047 270.385 230.769 268.663 230.769 266.538V239.615C230.769 237.491 229.047 235.769 226.923 235.769Z" fill="white"/>
<path d="M263.462 235.769H236.538C234.414 235.769 232.692 237.491 232.692 239.615V266.538C232.692 268.663 234.414 270.385 236.538 270.385H263.462C265.586 270.385 267.308 268.663 267.308 266.538V239.615C267.308 237.491 265.586 235.769 263.462 235.769Z" fill="black"/>
<path d="M300 235.769H273.077C270.953 235.769 269.231 237.491 269.231 239.615V266.538C269.231 268.663 270.953 270.385 273.077 270.385H300C302.124 270.385 303.846 268.663 303.846 266.538V239.615C303.846 237.491 302.124 235.769 300 235.769Z" fill="black"/>
<path d="M336.538 235.769H309.615C307.491 235.769 305.769 237.491 305.769 239.615V266.538C305.769 268.663 307.491 270.385 309.615 270.385H336.538C338.663 270.385 340.385 268.663 340.385 266.538V239.615C340.385 237.491 338.663 235.769 336.538 235.769Z" fill="black"/>
</g>
<defs>
<clipPath id="clip0_6_46">
<rect width="420" height="120" fill="white" transform="translate(40 300)"/>
</clipPath>
<clipPath id="clip1_6_46">
<rect width="200" height="200" fill="white" transform="translate(150 80)"/>
</clipPath>
</defs>
</svg>
